<svg width="66.91" height="122.88" xmlns="http://www.w3.org/2000/svg">

 <g>
  <title>background</title>
  <rect fill="none" id="canvas_background" height="514" width="514" y="-1" x="-1"/>
 </g>
 <g>
  <title>Layer 1</title>
  <g id="svg_1">
   <path fill="#3499dd" stroke-width="0" id="svg_2" d="m64.959999,111.199997c2.650002,2.730003 2.590004,7.080002 -0.129997,9.730003c-2.730003,2.650002 -7.080002,2.589996 -9.730003,-0.139999l-53.129998,-54.779999l4.93,-4.800003l-4.95,4.800003c-2.65,-2.740002 -2.59,-7.100002 0.15,-9.760002c0.08,-0.080002 0.16,-0.150002 0.24,-0.220001l52.759999,-53.939999c2.650002,-2.73 7,-2.79 9.730003,-0.14c2.729996,2.65 2.779999,7.01 0.129997,9.73l-48.459999,49.549999l48.459999,49.969997l0,0l0,0z"/>
  </g>
 </g>
</svg>