<svg width="115.16" height="122.88" xmlns="http://www.w3.org/2000/svg">

 <g>
  <title>background</title>
  <rect fill="none" id="canvas_background" height="514" width="514" y="-1" x="-1"/>
 </g>
 <g>
  <title>Layer 1</title>
  <g id="svg_1">
   <path fill="#3499dd" id="svg_2" d="m0,69.099998l0,-15.309998c4.65,-0.040001 8.13,-1.419998 10.49,-4.119999c2.33,-2.710003 3.51,-8.800003 3.51,-18.260002c0,-7.219999 0.26,-12.560001 0.81,-16.030001c0.52,-3.47 1.81,-6.39 3.86,-8.729999c2.049999,-2.35 4.690001,-4.030001 7.92,-5.08c3.219999,-1.05 7.810001,-1.57 13.740002,-1.57l3.380001,0l0,15.31c-6.200001,0 -9.900002,0.629999 -11.120003,1.919999c-1.219997,1.27 -1.879997,3.77 -1.959999,7.48c-0.259998,10.209999 -0.589998,16.860001 -0.98,19.93c-0.41,3.050003 -1.35,5.980003 -2.809999,8.77c-1.460001,2.790001 -4.190001,5.470001 -8.18,8.030003c3.800001,2.309998 6.540001,5.059998 8.24,8.239998c1.720001,3.209999 2.75,7.809998 3.029999,13.830002l0.960001,18.629997c0.389999,1.790001 1.309999,3.139999 2.769999,4.059998c1.460003,0.920006 4.820004,1.370003 10.060001,1.370003l0,15.309998l-3.34,0c-6.829998,0 -12.08,-0.779999 -15.809999,-2.329994c-3.709999,-1.550003 -6.389999,-4.100006 -8.07,-7.630005c-1.66,-3.549995 -2.49,-9.269997 -2.49,-17.139999c0,-8.699997 -0.31,-14.260002 -0.89,-16.709999c-0.59,-2.419998 -1.74,-4.649994 -3.45,-6.669998c-1.730002,-2.040001 -4.940002,-3.130005 -9.670002,-3.300003l0,0zm115.160004,0c-4.650002,0.040001 -8.139999,1.419998 -10.489998,4.169998c-2.330002,2.730003 -3.510002,8.770004 -3.510002,18.150002c0,7.260002 -0.260002,12.610001 -0.760002,16.099998c-0.519997,3.470001 -1.790001,6.389999 -3.839996,8.720001c-2.050003,2.360001 -4.709999,4.029999 -7.940002,5.080002c-3.25,1.050003 -7.830002,1.57 -13.760002,1.57l-3.399994,0l0,-15.310005c5.949997,0 9.599998,-0.609993 10.93,-1.849998c1.349998,-1.239998 2.07,-3.75 2.159996,-7.549995c0.260002,-10.93 0.650002,-17.93 1.18,-21.030006c0.550003,-3.099998 1.590004,-5.979996 3.209999,-8.659996c1.590004,-2.699997 4.120003,-5.040001 7.57,-7.049999c-3.639999,-2.380001 -6.189995,-4.730003 -7.629997,-7.02c-1.440002,-2.310001 -2.419998,-4.800003 -2.919998,-7.5c-0.5,-2.700001 -0.889999,-7.740002 -1.160004,-15.090002c-0.239998,-7.349998 -0.549995,-11.559999 -0.900002,-12.609999c-0.329994,-1.07 -1.159996,-1.98 -2.459999,-2.75c-1.309998,-0.759999 -4.619995,-1.16 -9.970001,-1.16l0,-15.309998l3.380005,0c6.829994,0 12.079994,0.79 15.790001,2.33c3.709999,1.55 6.389999,4.1 8.049995,7.63c1.660004,3.56 2.489998,9.27 2.489998,17.139998c0,9.050003 0.330002,14.740002 0.980003,17.080002c0.68,2.359997 1.830002,4.489998 3.529999,6.43c1.68,1.939999 4.840004,2.989998 9.489998,3.16l0,15.329998l-0.019997,0z"/>
  </g>
 </g>
</svg>