<svg width="122.88" height="103.53" xmlns="http://www.w3.org/2000/svg">
 <style type="text/css">.st0{fill-rule:evenodd;clip-rule:evenodd;}</style>

 <g>
  <title>background</title>
  <rect fill="none" id="canvas_background" height="514" width="514" y="-1" x="-1"/>
 </g>
 <g>
  <title>Layer 1</title>
  <g id="svg_1">
   <path fill="#3499dd" id="svg_2" d="m5.47,0l111.930002,0c3.010002,0 5.470001,2.46 5.470001,5.47l0,92.580003c0,3.010002 -2.459999,5.470001 -5.470001,5.470001l-111.930002,0c-3.01,0 -5.47,-2.460007 -5.47,-5.470001l0,-92.580003c0,-3.01 2.46,-5.47 5.47,-5.47l0,0zm26.37,38.549999l17.790001,18.419998l2.139999,2.130001l-2.119999,2.16l-17.970001,19.049999l-5.07,-5l15.850002,-16.149998l-15.650003,-15.560001l5.030001,-5.049999l0,0zm62.259998,40.860004l-39.41,0l0,-6.839996l39.41,0l0,6.839996l0,0zm-55.91,-69.580004c3.189999,0 5.779999,2.59 5.779999,5.78s-2.59,5.78 -5.779999,5.78c-3.189999,0 -5.779999,-2.59 -5.779999,-5.78s2.59,-5.78 5.779999,-5.78l0,0zm-19.239998,0c3.190001,0 5.780001,2.59 5.780001,5.78s-2.59,5.78 -5.780001,5.78c-3.19,0 -5.78,-2.59 -5.78,-5.78s2.579999,-5.78 5.78,-5.78l0,0zm-11.460001,-4.42l107.910002,0c1.150002,0 2.090004,0.94 2.090004,2.09l0,18.32l-112.090005,0l0,-18.32c0,-1.15 0.94,-2.09 2.09,-2.09l0,0z" class="st0"/>
  </g>
 </g>
</svg>