<svg width="122.88" height="101.57" xmlns="http://www.w3.org/2000/svg">

 <g>
  <title>background</title>
  <rect fill="none" id="canvas_background" height="514" width="514" y="-1" x="-1"/>
 </g>
 <g>
  <title>Layer 1</title>
  <g id="svg_1">
   <path fill="#3499dd" id="svg_2" d="m44.970001,12.84l-17.200001,0l-27.77,36.529999l27.77,36.530003l17.200001,0l-27.77,-36.530003l27.77,-36.529999l0,0zm32.940002,0l17.199997,0l27.770004,36.529999l-27.770004,36.530003l-17.199997,0l27.769997,-36.529999l-27.769997,-36.530003l0,0zm-7.740005,-12.8l5.959999,1.39c0.940002,0.22 1.520004,1.16 1.309998,2.1l-22.499996,96.690001c-0.220001,0.93 -1.16,1.520004 -2.100002,1.309998l-5.949997,-1.389999c-0.940002,-0.219994 -1.52,-1.159996 -1.310001,-2.099998l22.499996,-96.690001c0.220009,-0.93 1.160004,-1.52 2.090004,-1.31l0,0l0,0z"/>
  </g>
 </g>
</svg>