<svg width="101.15" height="122.88" xmlns="http://www.w3.org/2000/svg">

 <g>
  <title>background</title>
  <rect fill="none" id="canvas_background" height="514" width="514" y="-1" x="-1"/>
 </g>
 <g>
  <title>Layer 1</title>
  <g id="svg_1">
   <path fill="#3499dd" id="svg_2" d="m18.030001,27.190001c8.26,2.76 19.76,4.459999 32.530001,4.459999c12.77,0 24.27,-1.709999 32.529995,-4.459999c7.25,-2.42 11.740005,-5.35 11.740005,-8.220001c0,-2.869999 -4.480003,-5.799999 -11.740005,-8.219999c-8.259995,-2.75 -19.759995,-4.46 -32.529995,-4.46c-12.77,0 -24.27,1.71 -32.530001,4.46c-15.380001,5.14 -15.810001,11.16 0,16.440001l0,0zm76.809996,58.399996c-2.579994,1.770004 -5.869995,3.320007 -9.759995,4.620003c-8.900002,2.970001 -21.110001,4.809998 -34.52,4.809998c-13.41,0 -25.620012,-1.839996 -34.52,-4.809998c-3.840001,-1.279999 -7.110001,-2.82 -9.680011,-4.549995l0,18.849998c0.57,2.669998 4.92,5.369995 11.669999,7.619995c8.260012,2.760002 19.760012,4.459999 32.530001,4.459999s24.269997,-1.709999 32.529999,-4.459999c5.010002,-1.669998 8.690002,-3.589996 10.5,-5.549995c1.489998,-1.620003 1.25,-2.690002 1.25,-4.639999l0,-16.350006l0.000008,0zm-94.839996,-66.619997c0,-5.869999 6.13,-10.849999 16.040001,-14.159999c8.9,-2.97 21.110001,-4.81 34.52,-4.81c13.41,0 25.619999,1.84 34.52,4.81c9.019997,3.01 14.909996,7.41 15.889999,12.61c0.119995,0.33 0.18,0.690001 0.18,1.059999l0,86.740002c0,6.010002 -11.489998,11.330002 -16.07,12.860001c-8.900002,2.970001 -21.110001,4.809998 -34.52,4.809998c-13.41,0 -25.620001,-1.839996 -34.52,-4.809998c-4.690001,-1.57 -15.970001,-6.709999 -15.970001,-12.860001c0,-0.720001 0,-1.32 0,-2.010002c0,-28.089996 -0.07,-56.169998 -0.07,-84.24l0,0zm6.36,57.67c0.57,2.669998 4.92,5.370003 11.670001,7.620003c8.26,2.759995 19.76,4.459999 32.530001,4.459999s24.27,-1.709999 32.529995,-4.459999c7.25,-2.420006 11.740005,-5.349998 11.740005,-8.220001l0.029999,0l0,-18.310001c-2.580002,1.77 -5.889999,3.32 -9.779999,4.619999c-8.900002,2.970001 -21.110001,4.810005 -34.52,4.810005c-13.41,0 -25.620001,-1.840004 -34.52,-4.810005c-3.840001,-1.279999 -7.110001,-2.82 -9.680001,-4.549999l0,18.84l0,0zm0,-27.860001c0.57,2.670002 4.92,5.370003 11.670001,7.620003c8.26,2.759998 19.76,4.459999 32.530001,4.459999s24.27,-1.709999 32.529995,-4.459999c7.25,-2.420002 11.740005,-5.350002 11.740005,-8.220001l0.029999,0l0,-19.66c-2.580002,1.77 -5.889999,3.32 -9.779999,4.619999c-8.900002,2.970001 -21.110001,4.810001 -34.52,4.810001c-13.41,0 -25.620001,-1.84 -34.52,-4.810001c-3.840001,-1.279999 -7.110001,-2.82 -9.680001,-4.549999l0,20.189999l0,0z"/>
  </g>
 </g>
</svg>