<svg width="102.55" height="122.88" xmlns="http://www.w3.org/2000/svg">
 <style type="text/css">.st0{fill-rule:evenodd;clip-rule:evenodd;}</style>

 <g>
  <title>background</title>
  <rect fill="none" id="canvas_background" height="514" width="514" y="-1" x="-1"/>
 </g>
 <g>
  <title>Layer 1</title>
  <g id="svg_1">
   <path fill="#3499dd" id="svg_2" d="m102.550003,122.879997l-102.550003,0l0,-122.879997l77.660004,0l24.889999,26.43l0,96.449997l0,0zm-83.190002,-79.949997l41.869999,0c1.900002,0 3.460003,1.549999 3.460003,3.450001l0,12.799999l21.949997,-11.18l0,36.389999l-21.949997,-12.32l0,16.18c0,1.900002 -1.560001,3.459999 -3.459999,3.459999l-41.870003,0c-1.9,0 -3.46,-1.549995 -3.46,-3.459999l0,-41.869999c0.009999,-1.900002 1.559999,-3.450001 3.46,-3.450001l0,0zm17.860001,12.5l0,23.779999l11.889999,-11.889999l-11.889999,-11.889999l0,0zm58.909996,60.550003l0,-85.540003l-23.639999,0l0,-24.530001l-65.979998,0l0,110.070004l89.619997,0l0,0z" class="st0"/>
  </g>
 </g>
</svg>