<svg width="102.55" height="122.88" xmlns="http://www.w3.org/2000/svg">
 <style type="text/css">.st0{fill-rule:evenodd;clip-rule:evenodd;}</style>

 <g>
  <title>background</title>
  <rect fill="none" id="canvas_background" height="514" width="514" y="-1" x="-1"/>
 </g>
 <g>
  <title>Layer 1</title>
  <g id="svg_1">
   <path fill="#3499dd" id="svg_2" d="m102.550003,122.879997l-102.550003,0l0,-122.879997l77.660004,0l24.889999,26.440001l0,96.439997l0,0zm-77.040003,-69.159996l15.67,0l0,-10.389999l-15.67,0l0,-10.77l15.67,0l0,-10.710001l-15.67,0l0,-10.77l15.67,0l0,-3.25l-32.75,0l0,106.230005l85.769997,0l0,-81.700005l-22.68,0l0,-24.530001l-14.659996,0l0,3.29l-15.68,0l0,10.71l15.68,0l0,10.769999l-15.68,0l0,10.489998l15.68,0l0,24.989998c0,7.900002 -6.459999,14.360001 -14.360001,14.360001l-2.629997,0c-7.900002,0 -14.360003,-6.459999 -14.360003,-14.360001l0,-14.359993l0,0zm10.769999,9.349998l10.279999,0l0,4.059998c0,2.230003 -2.119999,4.050003 -4.709999,4.050003l-0.860001,0c-2.59,0 -4.709999,-1.830002 -4.709999,-4.050003l0,-4.059998l0,0l0,0z" class="st0"/>
  </g>
 </g>
</svg>