<svg width="97.88" height="122.88" xmlns="http://www.w3.org/2000/svg">
 <style type="text/css">.st0{fill-rule:evenodd;clip-rule:evenodd;}</style>

 <g>
  <title>background</title>
  <rect fill="none" id="canvas_background" height="514" width="514" y="-1" x="-1"/>
 </g>
 <g>
  <title>Layer 1</title>
  <g id="svg_1">
   <path fill="#3499dd" id="svg_2" d="m20.85,59.73c0,-4.279999 0.77,-7.27 2.309999,-8.98c1.540001,-1.709999 3.889999,-2.57 7.040001,-2.57c1.519999,0 2.759998,0.189999 3.73,0.560001c0.98,0.369999 1.77,0.859997 2.380001,1.459999c0.619999,0.599998 1.099998,1.23 1.449997,1.889999c0.360001,0.66 0.640003,1.43 0.850002,2.310001c0.419998,1.68 0.630001,3.43 0.630001,5.25c0,4.09 -0.690002,7.080002 -2.080002,8.970001c-1.380001,1.889999 -3.759998,2.839996 -7.139999,2.839996c-1.890001,0 -3.42,-0.299995 -4.59,-0.909996c-1.17,-0.600006 -2.120001,-1.490005 -2.870001,-2.660004c-0.539999,-0.830002 -0.969999,-1.959999 -1.269999,-3.400002c-0.280001,-1.429996 -0.440001,-3.019997 -0.440001,-4.759998l0,0zm45.840002,-59.04c-0.459999,-0.41 -1.110001,-0.69 -1.75,-0.69c-0.139999,0 -0.279999,0 -0.410004,0.05l-58.719999,0c-1.57,0 -3.04,0.64 -4.1,1.7c-1.06,1.06 -1.71,2.49 -1.71,4.1l0,111.22c0,1.610001 0.65,3.040001 1.7,4.099998c1.06,1.060005 2.49,1.700005 4.1,1.700005c29.589999,0 56.740001,0 86.180003,0c1.609993,0 3.039993,-0.650002 4.099998,-1.700005c1.059998,-1.059998 1.699997,-2.489998 1.699997,-4.099998l0,-83.200001c0.050003,-0.23 0.090004,-0.419998 0.090004,-0.649998c0,-0.780003 -0.370003,-1.470001 -0.880005,-1.980001l-30,-30.36c-0.089996,-0.09 -0.139999,-0.14 -0.229996,-0.18l-0.07,0l0,-0.01zm-6.020004,6.95l0,20.93c0,2.17 0.870003,4.740002 2.300003,6.170002c1.43,1.429996 4.449997,2.599998 6.619995,2.599998l20.660004,0l0,77.350002c0,0.139999 -0.199997,0.32 -0.330002,0.409996c-0.089996,0.090004 -0.080002,0.18 -0.269997,0.18c-23.419998,0 -58.730001,0 -81.510001,0c-0.14,0 -0.32,-0.049995 -0.41,-0.18c-0.09,-0.089996 -0.18,-0.279999 -0.18,-0.409996l0,-106.450003c0,-0.179999 0.05,-0.32 0.18,-0.41c0.09,-0.09 0.23,-0.18 0.41,-0.18l52.529998,0l0,-0.01l0,0zm6.849998,20.329999l0,-19.03l21.43,21.7l-18.759995,0c-0.740005,0 -1.380005,-0.32 -1.889999,-0.779999c-0.460007,-0.460001 -0.780006,-1.16 -0.780006,-1.890001l0,0zm-7.439995,67.229998c0,-4.279999 0.769997,-7.269997 2.309998,-8.979996c1.540001,-1.709999 3.889999,-2.57 7.040001,-2.57c1.519997,0 2.760002,0.189995 3.730003,0.559998c0.979996,0.370003 1.769997,0.860001 2.379997,1.459999c0.620003,0.599998 1.099998,1.230003 1.449997,1.889999c0.360001,0.660004 0.639999,1.43 0.849998,2.310005c0.420006,1.68 0.630005,3.43 0.630005,5.259995c0,4.090004 -0.690002,7.07 -2.080002,8.970001c-1.379997,1.889999 -3.760002,2.840004 -7.139999,2.840004c-1.889999,0 -3.419998,-0.300003 -4.589996,-0.910004c-1.170002,-0.599998 -2.120003,-1.489998 -2.870003,-2.659996c-0.540001,-0.830002 -0.959999,-1.959999 -1.27,-3.400002c-0.290001,-1.440002 -0.439999,-3.029999 -0.439999,-4.770004l0,0zm6.199997,0.010002c0,2.860001 0.25,4.830002 0.760002,5.870003c0.510002,1.049995 1.239998,1.57 2.209999,1.57c0.629997,0 1.190002,-0.220001 1.650002,-0.669998c0.470001,-0.450005 0.809998,-1.150002 1.029999,-2.110001c0.220001,-0.970001 0.330002,-2.470001 0.330002,-4.5c0,-2.990005 -0.25,-5 -0.760002,-6.030006c-0.510002,-1.029999 -1.269997,-1.539993 -2.279999,-1.539993c-1.040001,0 -1.779999,0.519997 -2.239998,1.57c-0.470001,1.059998 -0.700005,3 -0.700005,5.839996l0,0zm-13,-11.559998l0,22.909996l-6.32,0l0,-14.989998c-1.02,0.779999 -2.009998,1.400002 -2.969997,1.879997c-0.960003,0.480003 -2.16,0.940002 -3.600002,1.370003l0,-5.099998c2.130001,-0.690002 3.790001,-1.520004 4.959999,-2.489998c1.18,-0.970001 2.100002,-2.170006 2.77,-3.590004l5.16,0l0,0.010002zm-20.989998,0l0,22.909996l-6.320002,0l0,-14.989998c-1.019999,0.779999 -2.01,1.400002 -2.969999,1.879997c-0.959999,0.480003 -2.16,0.940002 -3.6,1.370003l0,-5.099998c2.130001,-0.690002 3.790001,-1.520004 4.960001,-2.489998c1.18,-0.970001 2.099998,-2.170006 2.769999,-3.590004l5.160002,0l0,0.010002zm44.739998,-35.470001l0,22.909996l-6.330002,0l0,-14.989998c-1.019997,0.780003 -2.009995,1.400002 -2.969994,1.880001c-0.960007,0.48 -2.160004,0.939999 -3.600006,1.369999l0,-5.099998c2.130005,-0.689999 3.790001,-1.52 4.959999,-2.490002c1.18,-0.969997 2.100006,-2.169998 2.770004,-3.59l5.169998,0l0,0.010002zm-35.189999,11.549999c0,-4.279999 0.77,-7.27 2.310001,-8.98c1.539997,-1.709999 3.889999,-2.57 7.039997,-2.57c1.52,0 2.760002,0.189999 3.73,0.560001c0.980003,0.369999 1.77,0.859997 2.380001,1.459999c0.619999,0.599998 1.100002,1.23 1.450001,1.889999c0.360001,0.66 0.639999,1.43 0.849998,2.310001c0.420002,1.68 0.630001,3.43 0.630001,5.25c0,4.09 -0.689999,7.080002 -2.079998,8.970001c-1.380001,1.889999 -3.760002,2.839996 -7.140003,2.839996c-1.889999,0 -3.419998,-0.299995 -4.59,-0.909996c-1.169998,-0.600006 -2.119999,-1.490005 -2.869999,-2.660004c-0.540001,-0.830002 -0.959999,-1.959999 -1.27,-3.400002c-0.279999,-1.429996 -0.439999,-3.019997 -0.439999,-4.759998l0,0zm6.200001,0.010002c0,2.859997 0.25,4.829998 0.759998,5.869999c0.510002,1.050003 1.240002,1.57 2.209999,1.57c0.630001,0 1.190002,-0.220001 1.650002,-0.669998c0.470001,-0.450005 0.810001,-1.150002 1.029999,-2.110001c0.220001,-0.970001 0.330002,-2.470001 0.330002,-4.5c0,-2.990002 -0.25,-5 -0.760002,-6.030003c-0.509998,-1.029999 -1.269997,-1.539997 -2.279999,-1.539997c-1.040001,0 -1.779999,0.519997 -2.239998,1.57c-0.470001,1.049999 -0.700001,3 -0.700001,5.84l0,0zm-20.990002,0c0,2.859997 0.25,4.829998 0.76,5.869999c0.51,1.050003 1.24,1.57 2.210001,1.57c0.629999,0 1.189999,-0.220001 1.65,-0.669998c0.469999,-0.450005 0.809999,-1.150002 1.030001,-2.110001c0.219997,-0.970001 0.329998,-2.470001 0.329998,-4.5c0,-2.990002 -0.25,-5 -0.759998,-6.030003c-0.51,-1.029999 -1.27,-1.539997 -2.280001,-1.539997c-1.039999,0 -1.780001,0.519997 -2.24,1.57c-0.469999,1.049999 -0.700001,3 -0.700001,5.84l0,0z" class="st0"/>
  </g>
 </g>
</svg>