<svg width="102.55" height="122.88" xmlns="http://www.w3.org/2000/svg">
 <style type="text/css">.st0{fill-rule:evenodd;clip-rule:evenodd;}</style>

 <g>
  <title>background</title>
  <rect fill="none" id="canvas_background" height="514" width="514" y="-1" x="-1"/>
 </g>
 <g>
  <title>Layer 1</title>
  <g id="svg_1">
   <path fill="#3499dd" id="svg_2" d="m102.550003,122.879997l-102.550003,0l0,-122.879997l77.660004,0l24.889999,26.43l0,96.449997l0,0zm-37.790001,-64.489998l4.660004,0l-5.380005,23.860001l-6.990002,-33.549999l-11.239998,0l-8.139999,33.549999l-6.1,-33.549999l-11.750002,0l11.93,54.000004l11.490002,0l8.049999,-31.940002l7.200001,31.940002l10.59,0l13.669998,-54.000004l-17.989998,0l0,9.689999l0,0zm31.369995,57.590004l0,-85.540003l-22.689995,0l0,-24.530001l-66.930002,0l0,110.070004l89.619997,0l0,0z" class="st0"/>
  </g>
 </g>
</svg>