<svg width="108.35" height="122.88" xmlns="http://www.w3.org/2000/svg">
 <style type="text/css">.st0{fill-rule:evenodd;clip-rule:evenodd;}</style>

 <g>
  <title>background</title>
  <rect fill="none" id="canvas_background" height="514" width="514" y="-1" x="-1"/>
 </g>
 <g>
  <title>Layer 1</title>
  <g id="svg_1">
   <path fill="#3499dd" id="svg_2" d="m0,0l9.86,110.589996l44.250001,12.290001l44.360001,-12.300003l9.879997,-110.579994l-108.349998,0l0,0l0,0zm70.959999,63.619999l-1.57,17.59l-15.150002,4.089996l-15.099998,-4.07l-0.959999,-10.829994l-13.620001,0l1.9,21.300003l27.850002,7.699997l27.759998,-7.699997l3.720001,-41.640003l-49.43,0l-1.239998,-13.889999l51.900002,0l1.209999,-13.560001l-67.940002,0l3.66,41.02l47.009998,-0.010002l0,0zm19.059998,39.920002l-35.66,9.879997l0,0.050003l-0.09,-0.029999l-0.09,0.029999l0,-0.050003l-35.66,-9.879997l-8.439997,-94.490001l88.379999,0l-8.440002,94.490001l0,0z" class="st0"/>
  </g>
 </g>
</svg>