<svg width="102.55" height="122.88" xmlns="http://www.w3.org/2000/svg">
 <style type="text/css">.st0{fill-rule:evenodd;clip-rule:evenodd;}</style>

 <g>
  <title>background</title>
  <rect fill="none" id="canvas_background" height="514" width="514" y="-1" x="-1"/>
 </g>
 <g>
  <title>Layer 1</title>
  <g id="svg_1">
   <path fill="#3499dd" id="svg_2" d="m102.550003,122.879997l-102.550003,0l0,-122.879997l77.660004,0l24.889999,26.440001l0,96.439997l0,0zm-72.730003,-77.369999c4.330002,0 7.84,3.5 7.84,7.829998c0,4.320004 -3.509998,7.830002 -7.84,7.830002c-4.32,0 -7.83,-3.509998 -7.83,-7.830002c0,-4.329998 3.51,-7.829998 7.83,-7.829998l0,0zm32.889999,29.759998l14.020004,-24.239998l2.069992,-3.570004l1.520004,3.84l9.449997,44.840004l-75.3,0l0,-9.120003l2.87,-0.099998l5.26,-0.270004l6.059999,-14.809998l3.77,0.199997l2.84,9.980003l6.919998,0l8,-20.59l1.43,-3.689999l2.120003,3.329998l8.970001,14.200001l0,0l0,0zm33.419998,40.710007l0,-83.620003l-22.68,0l0,-26.450001l-66.939997,0l0,110.070004l89.619997,0l0,0l0,0z" class="st0"/>
  </g>
 </g>
</svg>