<svg width="102.55" height="122.88" xmlns="http://www.w3.org/2000/svg">
 <style type="text/css">.st0{fill-rule:evenodd;clip-rule:evenodd;}</style>

 <g>
  <title>background</title>
  <rect fill="none" id="canvas_background" height="514" width="514" y="-1" x="-1"/>
 </g>
 <g>
  <title>Layer 1</title>
  <g id="svg_1">
   <path fill="#3499dd" id="svg_2" d="m102.550003,122.879997l-102.550003,0l0,-122.879997l77.660004,0l24.889999,26.43l0,96.449997l0,0zm-5.940002,-6.43l0,-86.489998l-22.68,0l0,-24.530001l-67.9,0l0,111.030001l90.58,0l0,-0.010002zm-34.560001,-84.579996l-46.419999,0l0,-6.030001l46.419999,0l0,6.030001l0,0zm25.280003,18.120001l-71.699997,0l0,-6.060001l71.699997,0l0,6.060001l0,0zm-40.030003,18.060001l-31.669999,0l0,-6.029999l31.669999,0l0,6.029999l0,0zm41.649998,17.989998l-73.319997,0l0,-6.029999l73.329999,0l0,6.029999l-0.010002,0zm0,18.089996l-73.319997,0l0,-6.059998l73.329999,0l0,6.059998l-0.010002,0z" class="st0"/>
  </g>
 </g>
</svg>