<svg width="102.55" height="122.88" xmlns="http://www.w3.org/2000/svg">
 <style type="text/css">.st0{fill-rule:evenodd;clip-rule:evenodd;}</style>

 <g>
  <title>background</title>
  <rect fill="none" id="canvas_background" height="514" width="514" y="-1" x="-1"/>
 </g>
 <g>
  <title>Layer 1</title>
  <g id="svg_1">
   <path fill="#3499dd" id="svg_2" d="m102.550003,122.879997l-102.550003,0l0,-122.879997l77.660004,0l24.889999,26.440001l0,96.439997l0,0zm-66.180004,-74.339996l32.610004,-7.470001l2.449997,-0.559998l0,2.5l0,38.509995l0.010002,0.090004l0.009995,0.049995l0.020004,0.200005l0.019997,0.159996l0.020004,0.400002l0.009995,0.090004l0,0.059998l-0.009995,0.019997c-0.010002,0.620003 -0.110001,1.25 -0.279999,1.840004c-0.170006,0.589996 -0.420006,1.159996 -0.720001,1.690002c-1.470001,2.57 -4.510002,4.689995 -8.000004,5.290001c-0.679996,0.119995 -1.329998,0.169998 -1.949997,0.169998c-1.880001,0 -3.59,-0.510002 -4.91,-1.389999c-1.440002,-0.970001 -2.43,-2.380005 -2.730003,-4.090004l0,0l0,-0.010002c-0.059998,-0.349998 -0.089996,-0.709999 -0.089996,-1.059998l0,-0.059998l0.009998,-0.020004c0.009998,-0.619995 0.110001,-1.25 0.279999,-1.839996c0.170002,-0.590004 0.420002,-1.160004 0.720001,-1.690002c1.470001,-2.57 4.509998,-4.690002 8,-5.290001l0.049999,-0.009995l0.490002,-0.070007l0.110001,-0.009995l0.48,-0.040001l0.09,-0.010002l0.470001,-0.019997l0.049999,0l0,-19.139999l-21.380001,6.139999l0,26.32l0.010002,0.129997l0,0.080002l0.009998,0.230003l0.010002,0.049995l0,0.060005l-0.010002,0.019997c-0.009998,0.709999 -0.119999,1.419998 -0.32,2.099998c-0.200001,0.660004 -0.48,1.310005 -0.829998,1.93c-1.710003,2.989998 -5.25,5.459999 -9.300001,6.160004c-0.780001,0.129997 -1.540001,0.199997 -2.26,0.199997c-2.18,0 -4.139999,-0.580002 -5.66,-1.599998c-1.639999,-1.099998 -2.76,-2.699997 -3.1,-4.639999c-0.07,-0.400002 -0.1,-0.800003 -0.1,-1.200005l0,-0.059998l0.01,-0.019997c0.01,-0.709999 0.120001,-1.420006 0.32,-2.100006c0.200001,-0.659996 0.480001,-1.32 0.83,-1.929993c1.710001,-2.990005 5.24,-5.460007 9.300001,-6.160004l0.019999,0l0.18,-0.029999l0.02,-0.010002c0.210001,-0.029999 0.49,-0.07 0.869999,-0.099998c0.280003,-0.029999 0.57,-0.050003 0.860001,-0.050003l0.010002,0c0.449997,-0.009995 0.889999,0.010002 1.32,0.040001l0,-33.859997l1.979996,0l0,0.009998zm59.759998,67.440002l0,-85.540003l-22.68,0l0,-24.530001l-66.939997,0l0,110.070004l89.619997,0l0,0z" class="st0"/>
  </g>
 </g>
</svg>