<svg width="102.55" height="122.88" xmlns="http://www.w3.org/2000/svg">
 <style type="text/css">.st0{fill-rule:evenodd;clip-rule:evenodd;}</style>

 <g>
  <title>background</title>
  <rect fill="none" id="canvas_background" height="514" width="514" y="-1" x="-1"/>
 </g>
 <g>
  <title>Layer 1</title>
  <g id="svg_1">
   <path fill="#3499dd" id="svg_2" d="m102.550003,122.879997l-102.550003,0l0,-122.879997l77.660004,0l24.889999,26.43l0,96.449997l0,0zm-15.540001,-53.049995c-1.480003,-1.459999 -4.75,-2.220001 -9.739998,-2.290001c-3.370003,-0.029999 -7.43,0.270004 -11.700005,0.860001c-1.909996,-1.099998 -3.879997,-2.309998 -5.429996,-3.75c-4.16,-3.889999 -7.639999,-9.279999 -9.799999,-15.220001c0.139999,-0.559998 0.259998,-1.039997 0.369999,-1.539997c0,0 2.349998,-13.32 1.73,-17.820002c-0.079998,-0.609999 -0.139999,-0.799999 -0.299999,-1.27l-0.200001,-0.529999c-0.639999,-1.470001 -1.889999,-3.030001 -3.849998,-2.940001l-1.18,-0.030001c-2.190002,0 -3.970001,1.120001 -4.43,2.790001c-1.420002,5.24 0.049999,13.08 2.700001,23.24l-0.68,1.650002c-1.900002,4.639999 -4.290001,9.319996 -6.389999,13.439995l-0.280003,0.530006c-2.219997,4.339996 -4.23,8.009995 -6.049999,11.129997l-1.879999,1c-0.140001,0.07 -3.360001,1.779999 -4.120001,2.239998c-6.41,3.830002 -10.66,8.169998 -11.37,11.620003c-0.219999,1.099998 -0.049999,2.510002 1.08,3.159996l1.829997,0.900002c0.790001,0.400002 1.620001,0.599998 2.470001,0.599998c4.559999,0 9.869999,-5.689995 17.18,-18.440002c8.439999,-2.739998 18.040001,-5.029999 26.450001,-6.289993c6.420002,3.609993 14.299999,6.119995 19.280003,6.119995c0.889999,0 1.649994,-0.080002 2.269997,-0.25c0.949997,-0.260002 1.760002,-0.799995 2.25,-1.540001c0.959999,-1.459999 1.159996,-3.459999 0.900002,-5.509995c-0.080002,-0.610001 -0.560005,-1.360001 -1.090004,-1.880005l-0.019997,0.020004l0,0zm-68.220001,24.299995c0.83,-2.279999 4.129999,-6.779999 9.01,-10.779999c0.299999,-0.25 1.059999,-0.949997 1.75,-1.610001c-5.090002,8.130005 -8.51,11.370003 -10.76,12.389999l0,0l0,0zm28.879997,-66.489998c1.470001,0 2.310001,3.699999 2.380001,7.169998c0.07,3.470001 -0.740002,5.91 -1.75,7.710003c-0.830002,-2.670002 -1.240002,-6.869999 -1.240002,-9.619999c0.000004,-0.010002 -0.059998,-5.260002 0.610001,-5.260002l0,0l0,0zm-8.619999,47.379997c1.029999,-1.830002 2.079998,-3.760002 3.169998,-5.809998c2.650002,-5.020004 4.32,-8.930004 5.57,-12.150002c2.480003,4.509998 5.570004,8.349998 9.200001,11.419998c0.450001,0.380005 0.93,0.770004 1.440002,1.150002c-7.380001,1.459999 -13.760002,3.230003 -19.380001,5.389999l0,0l0,0l0,0zm46.549999,-0.409996c-0.449997,0.279999 -1.739998,0.440002 -2.559998,0.440002c-2.670006,0 -5.980003,-1.220001 -10.620003,-3.220001c1.779999,-0.129997 3.410004,-0.200005 4.879997,-0.200005c2.68,0 3.480003,-0.009995 6.090004,0.660004c2.620003,0.669998 2.660004,2.029999 2.209999,2.32l0,0l0,0l0,0zm10.520004,41.370003l0,-85.530003l-22.68,0l0,-24.540001l-66.930002,0l0,110.070004l89.610003,0l0,0z" class="st0"/>
  </g>
 </g>
</svg>