<svg width="102.55" height="122.88" xmlns="http://www.w3.org/2000/svg">
 <style type="text/css">.st0{fill-rule:evenodd;clip-rule:evenodd;}</style>

 <g>
  <title>background</title>
  <rect fill="none" id="canvas_background" height="514" width="514" y="-1" x="-1"/>
 </g>
 <g>
  <title>Layer 1</title>
  <g id="svg_1">
   <path fill="#3499dd" id="svg_2" d="m75.589996,48.799999l-14.239998,0l-10.07,14.850002l-10.079998,-14.850002l-14.240002,0l17.07,25.52l-19.259998,28.379997l26.510002,0l0,-9.639999l-5.280003,0l5.280003,-7.900002l11.719997,17.540001l14.779999,0l-19.259998,-28.379997l17.069996,-25.52l0,0l0,0zm26.960007,74.079998l-102.550003,0l0,-122.879997l77.660004,0l24.889999,26.43l0,96.449997l0,0zm-8.340004,-8.82l0,-81.699997l-22.68,0l0,-24.530001l-63.099998,0l0,106.230005l85.779999,0l0,-0.000008z" class="st0"/>
  </g>
 </g>
</svg>