<svg width="122.88" height="118.1" xmlns="http://www.w3.org/2000/svg">

 <g>
  <title>background</title>
  <rect fill="none" id="canvas_background" height="514" width="514" y="-1" x="-1"/>
 </g>
 <g>
  <title>Layer 1</title>
  <g id="svg_1">
   <path fill="#3499dd" id="svg_2" d="m71.330002,85.160004l-40.860003,0l-4.869999,11.269997c-1.6,3.760002 -2.390001,6.839996 -2.390001,9.290001c0,3.260002 1.310001,5.650002 3.93,7.159996c1.51,0.93 5.300003,1.600006 11.330002,2.07l0,3.150002l-38.470001,0l0,-3.150002c4.14,-0.639999 7.57,-2.360001 10.22,-5.18c2.679999,-2.789993 5.999999,-8.619995 9.900001,-17.439995l41.389997,-92.330002l1.630001,0l41.709999,94.889999c3.989998,9 7.25,14.650002 9.82,16.980003c1.949997,1.779999 4.690002,2.799995 8.209999,3.089996l0,3.150002l-55.979996,0l0,-3.150002l2.300003,0c4.479996,0 7.659996,-0.639999 9.470001,-1.889999c1.25,-0.900002 1.889999,-2.209999 1.889999,-3.93c0,-1.019997 -0.18,-2.07 -0.520004,-3.150002c-0.119995,-0.519997 -0.959999,-2.650002 -2.559998,-6.409996l-6.150002,-14.419998l0,0zm-2.910004,-6.320007l-17.219997,-39.839996l-17.760002,39.839996l34.98,0l0,0z"/>
  </g>
 </g>
</svg>